<?xml version="1.0" encoding="utf-8"?>
<svg version="1.0" width="300.000000pt" height="300.000000pt" viewBox="0 0 300.000000 300.000000" preserveAspectRatio="xMidYMid meet" xmlns="http://www.w3.org/2000/svg">
  <defs>
    <radialGradient gradientUnits="userSpaceOnUse" cx="276.853" cy="2428.688" r="244.572" id="gradient-19" spreadMethod="reflect">
      <stop offset="0" style="stop-color: lch(40 140 302)"/>
      <stop offset="1" style="stop-color: lch(24 140 302)"/>
    </radialGradient>
    <radialGradient gradientUnits="userSpaceOnUse" cx="856.121" cy="2428.077" r="295.936" id="gradient-20" spreadMethod="reflect">
      <stop offset="0" style="stop-color: lch(40 140 302)"/>
      <stop offset="1" style="stop-color: lch(24 140 302)"/>
    </radialGradient>
    <radialGradient gradientUnits="userSpaceOnUse" cx="847.529" cy="2407.646" r="82.529" id="gradient-21" spreadMethod="reflect">
      <stop offset="0" style="stop-color: lch(40 140 302)"/>
      <stop offset="1" style="stop-color: lch(24 140 302)"/>
    </radialGradient>
    <radialGradient gradientUnits="userSpaceOnUse" cx="2095.933" cy="2428.617" r="253.484" id="gradient-22" spreadMethod="reflect">
      <stop offset="0" style="stop-color: lch(40 140 302)"/>
      <stop offset="1" style="stop-color: lch(24 140 302)"/>
    </radialGradient>
    <radialGradient gradientUnits="userSpaceOnUse" cx="1493.358" cy="2430" r="293.358" id="gradient-23" spreadMethod="reflect">
      <stop offset="0" style="stop-color: lch(40 140 302)"/>
      <stop offset="1" style="stop-color: lch(24 140 302)"/>
    </radialGradient>
    <radialGradient gradientUnits="userSpaceOnUse" cx="1480" cy="2480.25" r="56" id="gradient-24" spreadMethod="reflect">
      <stop offset="0" style="stop-color: lch(40 140 302)"/>
      <stop offset="1" style="stop-color: lch(24 140 302)"/>
    </radialGradient>
    <radialGradient gradientUnits="userSpaceOnUse" cx="2669.984" cy="2430" r="289.984" id="gradient-25" spreadMethod="reflect">
      <stop offset="0" style="stop-color: lch(40 140 302)"/>
      <stop offset="1" style="stop-color: lch(24 140 302)"/>
    </radialGradient>
    <radialGradient gradientUnits="userSpaceOnUse" cx="1771.177" cy="1495.115" r="297.453" id="gradient-26" spreadMethod="reflect">
      <stop offset="0" style="stop-color: lch(40 140 302)"/>
      <stop offset="1" style="stop-color: lch(24 140 302)"/>
    </radialGradient>
    <radialGradient gradientUnits="userSpaceOnUse" cx="1766.168" cy="1469.907" r="81.168" id="gradient-27" spreadMethod="reflect">
      <stop offset="0" style="stop-color: lch(40 140 302)"/>
      <stop offset="1" style="stop-color: lch(24 140 302)"/>
    </radialGradient>
    <radialGradient gradientUnits="userSpaceOnUse" cx="1160.335" cy="1494.896" r="290.335" id="gradient-28" spreadMethod="reflect">
      <stop offset="0" style="stop-color: lch(40 140 302)"/>
      <stop offset="1" style="stop-color: lch(24 140 302)"/>
    </radialGradient>
    <radialGradient gradientUnits="userSpaceOnUse" cx="475.606" cy="1510.361" r="404.695" id="gradient-29" spreadMethod="reflect">
      <stop offset="0" style="stop-color: lch(40 140 302)"/>
      <stop offset="1" style="stop-color: lch(24 140 302)"/>
    </radialGradient>
    <radialGradient gradientUnits="userSpaceOnUse" cx="2515.579" cy="1478.814" r="404.204" id="gradient-30" spreadMethod="reflect">
      <stop offset="0" style="stop-color: lch(40 140 302)"/>
      <stop offset="1" style="stop-color: lch(24 140 302)"/>
    </radialGradient>
    <radialGradient gradientUnits="userSpaceOnUse" cx="276.998" cy="564.798" r="244.466" id="gradient-31" spreadMethod="reflect">
      <stop offset="0" style="stop-color: lch(40 140 302)"/>
      <stop offset="1" style="stop-color: lch(24 140 302)"/>
    </radialGradient>
    <radialGradient gradientUnits="userSpaceOnUse" cx="857.989" cy="563.718" r="296.975" id="gradient-32" spreadMethod="reflect">
      <stop offset="0" style="stop-color: lch(40 140 302)"/>
      <stop offset="1" style="stop-color: lch(24 140 302)"/>
    </radialGradient>
    <radialGradient gradientUnits="userSpaceOnUse" cx="845.471" cy="539.939" r="84.529" id="gradient-33" spreadMethod="reflect">
      <stop offset="0" style="stop-color: lch(40 140 302)"/>
      <stop offset="1" style="stop-color: lch(24 140 302)"/>
    </radialGradient>
    <radialGradient gradientUnits="userSpaceOnUse" cx="2097.687" cy="564.126" r="251.687" id="gradient-34" spreadMethod="reflect">
      <stop offset="0" style="stop-color: lch(40 140 302)"/>
      <stop offset="1" style="stop-color: lch(24 140 302)"/>
    </radialGradient>
    <radialGradient gradientUnits="userSpaceOnUse" cx="1494.436" cy="562.5" r="293.658" id="gradient-35" spreadMethod="reflect">
      <stop offset="0" style="stop-color: lch(40 140 302)"/>
      <stop offset="1" style="stop-color: lch(24 140 302)"/>
    </radialGradient>
    <radialGradient gradientUnits="userSpaceOnUse" cx="1479.996" cy="618.713" r="51.065" id="gradient-36" spreadMethod="reflect">
      <stop offset="0" style="stop-color: lch(40 140 302)"/>
      <stop offset="1" style="stop-color: lch(24 140 302)"/>
    </radialGradient>
    <radialGradient gradientUnits="userSpaceOnUse" cx="2668.949" cy="562.278" r="289.598" id="gradient-37" spreadMethod="reflect">
      <stop offset="0" style="stop-color: lch(40 140 302)"/>
      <stop offset="1" style="stop-color: lch(24 140 302)"/>
    </radialGradient>
  </defs>
  <g transform="translate(0.000000,300.000000) scale(0.100000,-0.100000)" fill="#000000" stroke="none">
    <path d="M230 2828 c-143 -41 -224 -266 -190 -532 18 -146 64 -224 154 -261&#10;63 -27 246 -19 292 12 25 18 38 60 35 118 -1 33 -7 65 -13 72 -7 9 -40 13 -98&#10;13 -106 0 -116 8 -132 106 -13 83 -4 234 14 246 7 4 54 8 104 8 l90 0 17 35&#10;c21 44 22 123 2 152 -9 12 -32 27 -53 33 -46 12 -175 12 -222 -2z m210 -66&#10;c34 -16 35 -20 38 -77 l3 -60 -77 3 c-88 4 -126 -8 -144 -46 -19 -37 -25 -243&#10;-10 -309 17 -80 44 -97 142 -90 92 7 100 1 96 -74 l-3 -53 -50 -13 c-74 -19&#10;-192 -16 -240 6 -56 25 -101 80 -122 149 -14 45 -18 91 -18 217 1 143 3 166&#10;24 218 26 67 73 119 122 134 57 18 199 16 239 -5z" style="fill: url('#gradient-19'); paint-order: fill; fill-opacity: 0.7;"/>
    <path d="M741 2828 c-74 -25 -149 -140 -172 -263 -18 -97 -7 -328 20 -396 42&#10;-109 111 -150 257 -150 146 0 206 36 259 157 36 81 48 158 47 289 -1 136 -17&#10;212 -56 279 -41 70 -86 89 -216 93 -59 1 -120 -3 -139 -9z m262 -76 c83 -52&#10;122 -180 114 -377 -5 -151 -26 -224 -82 -281 -47 -49 -91 -64 -190 -64 -143 0&#10;-210 44 -248 164 -32 104 -32 319 1 423 25 81 70 136 125 152 17 6 79 9 137 8&#10;90 -2 110 -5 143 -25z" style="fill: url('#gradient-20'); paint-order: fill; fill-opacity: 0.7;"/>
    <path d="M813 2630 c-42 -17 -48 -45 -48 -225 0 -206 7 -225 80 -225 69 0 79&#10;23 84 188 4 153 -3 213 -27 241 -21 24 -59 33 -89 21z m81 -32 c18 -30 29&#10;-173 20 -277 l-7 -82 -41 3 c-60 4 -66 23 -66 209 0 86 3 159 7 162 3 4 21 7&#10;39 7 24 0 38 -7 48 -22z" style="fill: url('#gradient-21'); paint-order: fill; fill-opacity: 0.7;"/>
    <path d="M2006 2825 c-61 -22 -88 -47 -123 -113 -38 -74 -50 -152 -33 -224 17&#10;-70 71 -123 165 -162 70 -29 105 -52 105 -68 0 -4 -54 -8 -120 -8 l-119 0 -16&#10;-30 c-8 -16 -15 -55 -15 -88 0 -92 36 -112 203 -113 157 -1 212 26 260 129 52&#10;111 48 244 -10 312 -14 18 -65 50 -118 75 -51 25 -98 51 -104 59 -19 23 24 30&#10;128 22 l87 -6 17 35 c20 42 22 110 4 145 -8 15 -27 29 -52 36 -55 17 -211 16&#10;-259 -1z m244 -61 c32 -13 41 -22 46 -49 3 -18 4 -43 2 -56 -3 -23 -6 -24&#10;-113 -27 -121 -3 -145 -13 -145 -62 0 -34 17 -48 115 -94 93 -44 121 -66 146&#10;-121 38 -83 15 -220 -46 -274 -45 -39 -91 -51 -195 -51 -94 0 -156 12 -176 32&#10;-7 7 -14 38 -15 68 l-3 55 96 -4 c115 -4 163 9 172 46 11 41 -17 69 -116 117&#10;-51 24 -101 53 -111 64 -42 46 -59 154 -37 234 14 50 55 97 105 119 53 25 216&#10;26 275 3z" style="fill: url('#gradient-22'); paint-order: fill; fill-opacity: 0.7;"/>
    <path d="M1363 2777 c-57 -133 -163 -583 -163 -692 0 -48 15 -55 110 -55 85 0&#10;87 1 100 28 7 15 16 54 19 87 l6 60 51 3 52 3 7 -68 c11 -107 17 -113 130&#10;-113 l94 0 12 39 c10 33 8 63 -15 193 -50 283 -122 551 -152 562 -8 3 -64 6&#10;-122 6 l-107 0 -22 -53z m242 -41 c37 -88 124 -465 150 -648 l6 -48 -84 0&#10;c-56 0 -88 4 -95 13 -5 6 -13 35 -17 62 -15 113 -8 105 -85 105 -78 0 -72 7&#10;-85 -117 l-7 -63 -79 0 c-106 0 -106 0 -74 176 43 229 72 353 121 507 l16 47&#10;109 0 110 0 14 -34z" style="fill: url('#gradient-23'); paint-order: fill; fill-opacity: 0.7;"/>
    <path d="M1449 2483 l-25 -128 28 -3 c15 -2 41 -2 56 0 l28 3 -25 128 c-14 70&#10;-28 127 -31 127 -3 0 -17 -57 -31 -127z m55 -30 c6 -41 5 -43 -19 -43 -29 0&#10;-29 1 -14 72 13 58 20 51 33 -29z" style="fill: url('#gradient-24'); paint-order: fill; fill-opacity: 0.7;"/>
    <path d="M2395 2800 c-9 -18 -15 -56 -15 -104 0 -90 6 -96 104 -96 l66 0 0&#10;-273 c0 -199 3 -276 12 -285 8 -8 45 -12 100 -12 80 0 88 2 100 23 9 16 14 97&#10;18 286 l5 265 67 -3 67 -2 20 40 c26 49 28 136 5 169 -15 22 -18 22 -274 22&#10;l-259 0 -16 -30z m513 -42 c7 -7 12 -39 12 -75 l0 -63 -54 0 c-29 0 -68 -3&#10;-85 -6 l-31 -6 0 -284 0 -284 -83 0 c-51 0 -88 5 -95 12 -9 9 -12 87 -12 290&#10;l0 278 -79 0 c-91 0 -91 0 -91 91 l0 59 253 0 c183 0 256 -3 265 -12z" style="fill: url('#gradient-25'); paint-order: fill; fill-opacity: 0.7;"/>
    <path d="M1686 1899 c-88 -21 -148 -88 -189 -212 -30 -88 -31 -332 -3 -426 28&#10;-94 89 -154 171 -171 84 -17 194 -8 247 22 89 48 145 180 155 358 13 250 -52&#10;400 -186 429 -61 13 -140 13 -195 0z m181 -61 c60 -15 115 -69 137 -136 26&#10;-77 37 -213 26 -319 -21 -205 -87 -280 -248 -285 -107 -4 -158 8 -202 49 -62&#10;56 -82 121 -88 286 -8 252 39 371 158 405 49 14 162 14 217 0z" style="fill: url('#gradient-26'); paint-order: fill; fill-opacity: 0.7;"/>
    <path d="M1704 1679 c-17 -19 -19 -38 -19 -211 0 -187 0 -190 24 -209 40 -33&#10;93 -24 116 21 35 67 27 359 -11 401 -24 27 -85 26 -110 -2z m86 1 c30 -16 40&#10;-73 40 -223 l0 -137 -26 -12 c-21 -10 -31 -9 -52 3 -35 19 -39 44 -41 211 -1&#10;112 2 139 15 152 18 18 38 20 64 6z" style="fill: url('#gradient-27'); paint-order: fill; fill-opacity: 0.7;"/>
    <path d="M890 1868 c-15 -24 -20 -51 -20 -100 0 -88 10 -98 101 -98 l69 0 0&#10;-274 c0 -325 -8 -306 122 -306 78 0 78 0 98 33 19 30 20 50 20 290 l0 257 68&#10;0 68 0 17 35 c25 52 23 149 -3 175 -19 19 -33 20 -270 20 l-250 0 -20 -32z&#10;m508 -40 c7 -7 12 -40 12 -80 l0 -68 -85 0 -85 0 0 -285 0 -286 -87 3 -88 3&#10;-3 283 -2 282 -69 0 c-101 0 -101 0 -101 86 l0 74 248 0 c180 0 251 -3 260&#10;-12z" style="fill: url('#gradient-28'); paint-order: fill; fill-opacity: 0.7;"/>
    <path d="M190 1631 c-136 -112 -149 -148 -72 -208 91 -72 161 -116 176 -110&#10;24 9 50 56 50 93 l1 34 241 0 c268 0 258 -3 285 72 24 68 24 68 -287 68 -151&#10;0 -274 1 -274 3 0 2 9 22 20 45 16 33 18 47 10 62 -19 35 -52 22 -150 -59z&#10;m118 -8 c2 -16 -10 -32 -48 -62 l-52 -41 311 0 c289 0 311 -1 320 -18 5 -10 7&#10;-23 3 -29 -5 -7 -110 -12 -319 -14 -172 -2 -313 -7 -313 -11 0 -4 8 -9 18 -12&#10;9 -4 34 -21 55 -39 42 -35 43 -67 3 -67 -26 1 -200 129 -204 151 -2 10 33 45&#10;90 93 96 79 130 92 136 49z" style="fill: url('#gradient-29'); paint-order: fill; fill-opacity: 0.7;"/>
    <path d="M2692 1673 c-20 -8 -54 -82 -47 -103 6 -19 -2 -20 -242 -22 l-247 -3&#10;-23 -40 c-27 -48 -28 -59 -7 -79 13 -14 54 -16 289 -16 l274 0 -25 -44 c-14&#10;-24 -22 -51 -18 -60 7 -20 47 -31 67 -19 49 29 177 143 191 171 30 62 24 73&#10;-78 145 -99 71 -114 78 -134 70z m99 -123 c60 -43 99 -78 99 -88 0 -23 -186&#10;-174 -208 -170 -10 2 -18 13 -20 25 -2 16 10 32 47 60 27 21 50 40 50 43 1 3&#10;-131 4 -291 2 -161 -1 -303 0 -316 3 -18 4 -23 11 -20 33 l3 27 313 0 c171 0&#10;312 2 312 5 0 3 -23 20 -50 38 -60 39 -70 81 -21 91 2 1 48 -31 102 -69z" style="fill: url('#gradient-30'); paint-order: fill; fill-opacity: 0.7;"/>
    <path d="M257 969 c-85 -20 -131 -61 -176 -159 -56 -120 -65 -342 -19 -488 23&#10;-77 81 -141 144 -160 59 -17 180 -14 239 6 65 22 82 55 75 144 l-5 63 -95 5&#10;c-52 3 -100 8 -107 13 -25 16 -38 84 -38 204 0 87 4 126 13 135 9 9 41 13 106&#10;11 l93 -1 17 34 c23 49 21 125 -4 157 -32 41 -149 58 -243 36z m191 -73 c31&#10;-16 32 -19 32 -76 l0 -60 -90 0 c-82 0 -93 -2 -115 -24 -30 -30 -39 -87 -33&#10;-230 3 -89 8 -120 24 -147 l20 -34 100 -5 99 -5 3 -61 3 -61 -39 -11 c-124&#10;-37 -250 -22 -311 36 -60 58 -83 131 -88 287 -9 252 44 371 180 406 49 13 180&#10;3 215 -15z" style="fill: url('#gradient-31'); paint-order: fill; fill-opacity: 0.7;"/>
    <path d="M768 967 c-64 -19 -94 -41 -129 -95 -57 -90 -71 -145 -77 -295 -9&#10;-261 43 -383 181 -417 71 -18 202 -9 255 19 111 57 176 273 152 504 -16 156&#10;-55 233 -138 269 -57 25 -180 33 -244 15z m174 -58 c41 -9 62 -21 93 -53 62&#10;-64 80 -136 80 -316 0 -205 -32 -297 -120 -347 -82 -46 -254 -39 -322 13 -84&#10;64 -123 260 -93 469 20 133 76 213 166 234 55 13 134 13 196 0z" style="fill: url('#gradient-32'); paint-order: fill; fill-opacity: 0.7;"/>
    <path d="M797 758 c-25 -19 -37 -90 -36 -218 0 -188 15 -230 84 -230 68 0 85&#10;45 85 224 -1 145 -10 204 -36 223 -23 17 -75 17 -97 1z m77 -8 c22 0 34 -44&#10;40 -146 9 -132 -3 -228 -27 -232 -37 -7 -65 7 -76 39 -6 18 -11 99 -11 185 0&#10;137 2 153 18 157 9 3 23 3 30 1 8 -2 19 -4 26 -4z" style="fill: url('#gradient-33'); paint-order: fill; fill-opacity: 0.7;"/>
    <path d="M2055 974 c-99 -26 -134 -53 -178 -138 -27 -53 -31 -71 -31 -141 0&#10;-63 5 -89 22 -122 26 -50 52 -69 166 -122 118 -55 112 -66 -37 -66 l-116 0&#10;-15 -33 c-16 -33 -21 -116 -10 -147 12 -31 66 -48 170 -53 117 -5 192 12 238&#10;54 66 62 103 214 77 312 -18 64 -64 107 -171 160 -131 65 -130 74 11 71 l114&#10;-3 17 35 c36 72 18 151 -38 175 -37 15 -183 27 -219 18z m156 -65 c63 -14 89&#10;-38 89 -83 0 -65 -2 -66 -99 -60 -67 5 -94 3 -124 -9 -36 -15 -38 -19 -35 -54&#10;3 -37 5 -38 111 -91 143 -71 162 -98 162 -221 0 -113 -26 -164 -100 -201 -45&#10;-22 -62 -25 -160 -24 -77 0 -121 5 -147 16 -35 16 -36 18 -40 77 l-3 61 113 0&#10;c124 0 146 7 156 45 11 42 -10 63 -107 108 -110 52 -152 94 -163 162 -15 100&#10;13 197 68 238 56 42 178 57 279 36z" style="fill: url('#gradient-34'); paint-order: fill; fill-opacity: 0.7;"/>
    <path d="M1364 915 c-50 -109 -145 -506 -160 -666 -6 -61 -5 -68 15 -78 12 -7&#10;54 -11 99 -9 74 3 77 4 91 33 8 17 17 56 19 88 l4 57 53 0 53 0 7 -71 c10&#10;-100 21 -109 130 -109 l85 0 17 35 c16 33 15 42 -5 167 -37 224 -117 545 -145&#10;581 -9 12 -39 16 -126 19 l-114 3 -23 -50z m263 -115 c17 -52 43 -149 58 -215&#10;25 -110 75 -377 75 -397 0 -5 -42 -7 -92 -6 l-93 3 -8 50 c-4 28 -10 65 -13&#10;83 l-5 32 -69 0 c-78 0 -72 7 -85 -112 l-6 -58 -84 0 c-74 0 -83 2 -88 20 -11&#10;41 67 420 123 603 l31 98 112 -3 112 -3 32 -95z" style="fill: url('#gradient-35'); paint-order: fill; fill-opacity: 0.7;"/>
    <path d="M1451 625 c-13 -68 -23 -127 -22 -131 2 -10 101 -8 102 2 2 18 -46&#10;254 -51 254 -3 0 -16 -56 -29 -125z m53 -37 c7 -36 6 -38 -20 -38 -22 0 -25 3&#10;-21 23 3 12 9 40 13 62 7 36 8 38 14 15 4 -14 10 -42 14 -62z" style="fill: url('#gradient-36'); paint-order: fill; fill-opacity: 0.7;"/>
    <path d="M2398 935 c-21 -35 -26 -163 -6 -183 7 -7 42 -12 85 -12 l73 0 0&#10;-280 c0 -325 -10 -300 119 -300 114 0 111 -9 111 320 l0 260 70 0 c68 0 71 1&#10;91 33 16 26 19 45 17 99 -2 37 -8 72 -13 77 -6 6 -120 11 -269 13 l-259 3 -19&#10;-30z m516 -51 c3 -9 6 -42 6 -75 l0 -59 -85 0 -85 0 0 -285 0 -285 -89 0 c-72&#10;0 -90 3 -95 16 -3 9 -6 137 -6 285 l0 269 -73 0 c-43 0 -78 5 -85 12 -7 7 -12&#10;39 -12 75 l0 63 259 0 c227 0 260 -2 265 -16z" style="fill: url('#gradient-37'); paint-order: fill; fill-opacity: 0.7;"/>
  </g>
</svg>